<?xml version="1.0" encoding="us-ascii" standalone="no"?><svg xmlns="http://www.w3.org/2000/svg" xmlns:xlink="http://www.w3.org/1999/xlink" contentStyleType="text/css" height="2394.6px" preserveAspectRatio="none" style="width:4352px;height:2394px;background:#FFFFFF;" version="1.1" viewBox="0 0 4352 2394" width="4352.4px" zoomAndPan="magnify"><defs/><g><!--class Role--><g id="elem_Role"><rect codeLine="7" fill="#F1F1F1" height="210.5391" id="Role" rx="6.5" ry="6.5" style="stroke:#181818;stroke-width:1.3;" width="200.2" x="383.5" y="1963.546"/><ellipse cx="440.05" cy="2005.146" fill="#EB937F" rx="28.6" ry="28.6" style="stroke:#181818;stroke-width:2.6;"/><path d="M449.4471,2022.046 L429.3758,2022.046 L429.3758,1989.824 L449.4471,1989.824 L449.4471,1995.4354 L435.7425,1995.4354 L435.7425,2002.3848 L448.1521,2002.3848 L448.1521,2007.9961 L435.7425,2007.9961 L435.7425,2016.4347 L449.4471,2016.4347 Z " fill="#000000"/><text fill="#000000" font-family="sans-serif" font-size="36.4" lengthAdjust="spacing" textLength="78" x="480.35" y="2018.9026">Role</text><line style="stroke:#181818;stroke-width:1.3;" x1="386.1" x2="581.1" y1="2046.746" y2="2046.746"/><text fill="#000000" font-family="sans-serif" font-size="36.4" lengthAdjust="spacing" textLength="169" x="399.1" y="2092.3374">BasicUser</text><text fill="#000000" font-family="sans-serif" font-size="36.4" lengthAdjust="spacing" textLength="117" x="399.1" y="2135.2069">Admin</text><line style="stroke:#181818;stroke-width:1.3;" x1="386.1" x2="581.1" y1="2153.2851" y2="2153.2851"/></g><!--class UserEntity--><g id="elem_UserEntity"><rect codeLine="12" fill="#F1F1F1" height="745.7734" id="UserEntity" rx="6.5" ry="6.5" style="stroke:#181818;stroke-width:1.3;" width="930.8" x="18.2" y="827.528"/><ellipse cx="382.85" cy="869.128" fill="#ADD1B2" rx="28.6" ry="28.6" style="stroke:#181818;stroke-width:2.6;"/><path d="M389.2802,885.1 Q387.7694,885.8769 386.1076,886.2654 Q384.4458,886.6539 382.6113,886.6539 Q376.0936,886.6539 372.662,882.3591 Q369.2305,878.0642 369.2305,869.9494 Q369.2305,861.813 372.662,857.5181 Q376.0936,853.2233 382.6113,853.2233 Q384.4458,853.2233 386.1292,853.6118 Q387.8126,854.0003 389.2802,854.7772 L389.2802,861.8561 Q387.6399,860.3454 386.0968,859.644 Q384.5537,858.9426 382.9135,858.9426 Q379.4172,858.9426 377.6367,861.7158 Q375.8562,864.4891 375.8562,869.9494 Q375.8562,875.3881 377.6367,878.1613 Q379.4172,880.9346 382.9135,880.9346 Q384.5537,880.9346 386.0968,880.2332 Q387.6399,879.5318 389.2802,878.0211 Z " fill="#000000"/><text fill="#000000" font-family="sans-serif" font-size="36.4" lengthAdjust="spacing" textLength="179.4" x="436.15" y="882.8846">UserEntity</text><line style="stroke:#181818;stroke-width:1.3;" x1="20.8" x2="946.4" y1="910.728" y2="910.728"/><text fill="#000000" font-family="sans-serif" font-size="36.4" lengthAdjust="spacing" textLength="111.8" x="33.8" y="956.3194">Id : int</text><text fill="#000000" font-family="sans-serif" font-size="36.4" lengthAdjust="spacing" textLength="231.4" x="33.8" y="999.1889">Email : string</text><text fill="#000000" font-family="sans-serif" font-size="36.4" lengthAdjust="spacing" textLength="236.6" x="33.8" y="1042.0585">Name : string</text><text fill="#000000" font-family="sans-serif" font-size="36.4" lengthAdjust="spacing" textLength="392.6" x="33.8" y="1084.928">PasswordHash : string</text><text fill="#000000" font-family="sans-serif" font-size="36.4" lengthAdjust="spacing" textLength="228.8" x="33.8" y="1127.7975">Iban : string?</text><text fill="#000000" font-family="sans-serif" font-size="36.4" lengthAdjust="spacing" textLength="187.2" x="33.8" y="1170.6671">Role : Role</text><line style="stroke:#181818;stroke-width:2.6;" x1="20.8" x2="946.4" y1="1188.7452" y2="1188.7452"/><text fill="#000000" font-family="sans-serif" font-size="36.4" lengthAdjust="spacing" textLength="556.4" x="33.8" y="1234.3366">Password : string &#171;NotMapped&#187;</text><text fill="#000000" font-family="sans-serif" font-size="36.4" lengthAdjust="spacing" textLength="514.8" x="33.8" y="1277.2061">Token : string? &#171;NotMapped&#187;</text><line style="stroke:#181818;stroke-width:2.6;" x1="20.8" x2="946.4" y1="1295.2843" y2="1295.2843"/><text fill="#000000" font-family="sans-serif" font-size="36.4" lengthAdjust="spacing" textLength="696.8" x="33.8" y="1340.8757">Tricounts : ICollection&lt;TricountEntity&gt;</text><text fill="#000000" font-family="sans-serif" font-size="36.4" lengthAdjust="spacing" textLength="837.2" x="33.8" y="1383.7452">CreatedTricounts : ICollection&lt;TricountEntity&gt;</text><text fill="#000000" font-family="sans-serif" font-size="36.4" lengthAdjust="spacing" textLength="842.4" x="33.8" y="1426.6147">Participations : ICollection&lt;ParticipationEntity&gt;</text><text fill="#000000" font-family="sans-serif" font-size="36.4" lengthAdjust="spacing" textLength="754" x="33.8" y="1469.4843">Operations : ICollection&lt;OperationEntity&gt;</text><text fill="#000000" font-family="sans-serif" font-size="36.4" lengthAdjust="spacing" textLength="899.6" x="33.8" y="1512.3538">InitiatedOperations : ICollection&lt;OperationEntity&gt;</text><text fill="#000000" font-family="sans-serif" font-size="36.4" lengthAdjust="spacing" textLength="790.4" x="33.8" y="1555.2233">Repartitions : ICollection&lt;RepartitionEntity&gt;</text></g><!--class TricountEntity--><g id="elem_TricountEntity"><rect codeLine="31" fill="#F1F1F1" height="510.6258" id="TricountEntity" rx="6.5" ry="6.5" style="stroke:#181818;stroke-width:1.3;" width="873.6" x="1339" y="425.1"/><ellipse cx="1639.95" cy="466.7" fill="#ADD1B2" rx="28.6" ry="28.6" style="stroke:#181818;stroke-width:2.6;"/><path d="M1646.3802,482.672 Q1644.8694,483.4489 1643.2076,483.8374 Q1641.5458,484.2259 1639.7113,484.2259 Q1633.1936,484.2259 1629.762,479.9311 Q1626.3305,475.6362 1626.3305,467.5214 Q1626.3305,459.385 1629.762,455.0901 Q1633.1936,450.7953 1639.7113,450.7953 Q1641.5458,450.7953 1643.2292,451.1838 Q1644.9126,451.5723 1646.3802,452.3492 L1646.3802,459.4281 Q1644.7399,457.9174 1643.1968,457.216 Q1641.6537,456.5146 1640.0135,456.5146 Q1636.5172,456.5146 1634.7367,459.2878 Q1632.9562,462.0611 1632.9562,467.5214 Q1632.9562,472.9601 1634.7367,475.7333 Q1636.5172,478.5066 1640.0135,478.5066 Q1641.6537,478.5066 1643.1968,477.8052 Q1644.7399,477.1038 1646.3802,475.5931 Z " fill="#000000"/><text fill="#000000" font-family="sans-serif" font-size="36.4" lengthAdjust="spacing" textLength="249.6" x="1693.25" y="480.4566">TricountEntity</text><line style="stroke:#181818;stroke-width:1.3;" x1="1341.6" x2="2210" y1="508.3" y2="508.3"/><text fill="#000000" font-family="sans-serif" font-size="36.4" lengthAdjust="spacing" textLength="111.8" x="1354.6" y="553.8914">Id : int</text><text fill="#000000" font-family="sans-serif" font-size="36.4" lengthAdjust="spacing" textLength="213.2" x="1354.6" y="596.7609">Title : string</text><text fill="#000000" font-family="sans-serif" font-size="36.4" lengthAdjust="spacing" textLength="353.6" x="1354.6" y="639.6305">Description : string?</text><text fill="#000000" font-family="sans-serif" font-size="36.4" lengthAdjust="spacing" textLength="247" x="1354.6" y="682.5">CreatorId : int</text><text fill="#000000" font-family="sans-serif" font-size="36.4" lengthAdjust="spacing" textLength="379.6" x="1354.6" y="725.3695">CreatedAt : DateTime</text><line style="stroke:#181818;stroke-width:2.6;" x1="1341.6" x2="2210" y1="743.4477" y2="743.4477"/><text fill="#000000" font-family="sans-serif" font-size="36.4" lengthAdjust="spacing" textLength="345.8" x="1354.6" y="789.0391">Creator : UserEntity</text><text fill="#000000" font-family="sans-serif" font-size="36.4" lengthAdjust="spacing" textLength="665.6" x="1354.6" y="831.9086">Participants : ICollection&lt;UserEntity&gt;</text><text fill="#000000" font-family="sans-serif" font-size="36.4" lengthAdjust="spacing" textLength="842.4" x="1354.6" y="874.7781">Participations : ICollection&lt;ParticipationEntity&gt;</text><text fill="#000000" font-family="sans-serif" font-size="36.4" lengthAdjust="spacing" textLength="754" x="1354.6" y="917.6477">Operations : ICollection&lt;OperationEntity&gt;</text></g><!--class ParticipationEntity--><g id="elem_ParticipationEntity"><rect codeLine="44" fill="#F1F1F1" height="296.2781" id="ParticipationEntity" rx="6.5" ry="6.5" style="stroke:#181818;stroke-width:1.3;" width="462.8" x="2782" y="111.072"/><ellipse cx="2846.74" cy="152.672" fill="#ADD1B2" rx="28.6" ry="28.6" style="stroke:#181818;stroke-width:2.6;"/><path d="M2853.1702,168.644 Q2851.6594,169.4209 2849.9976,169.8094 Q2848.3358,170.1979 2846.5013,170.1979 Q2839.9836,170.1979 2836.552,165.9031 Q2833.1205,161.6082 2833.1205,153.4934 Q2833.1205,145.357 2836.552,141.0621 Q2839.9836,136.7673 2846.5013,136.7673 Q2848.3358,136.7673 2850.0192,137.1558 Q2851.7026,137.5443 2853.1702,138.3212 L2853.1702,145.4001 Q2851.5299,143.8894 2849.9868,143.188 Q2848.4437,142.4866 2846.8035,142.4866 Q2843.3072,142.4866 2841.5267,145.2598 Q2839.7462,148.0331 2839.7462,153.4934 Q2839.7462,158.9321 2841.5267,161.7053 Q2843.3072,164.4786 2846.8035,164.4786 Q2848.4437,164.4786 2849.9868,163.7772 Q2851.5299,163.0758 2853.1702,161.5651 Z " fill="#000000"/><text fill="#000000" font-family="sans-serif" font-size="36.4" lengthAdjust="spacing" textLength="322.4" x="2888.86" y="166.4286">ParticipationEntity</text><line style="stroke:#181818;stroke-width:1.3;" x1="2784.6" x2="3242.2" y1="194.272" y2="194.272"/><text fill="#000000" font-family="sans-serif" font-size="36.4" lengthAdjust="spacing" textLength="262.6" x="2797.6" y="239.8634">TricountId : int</text><text fill="#000000" font-family="sans-serif" font-size="36.4" lengthAdjust="spacing" textLength="192.4" x="2797.6" y="282.7329">UserId : int</text><line style="stroke:#181818;stroke-width:2.6;" x1="2784.6" x2="3242.2" y1="300.8111" y2="300.8111"/><text fill="#000000" font-family="sans-serif" font-size="36.4" lengthAdjust="spacing" textLength="431.6" x="2797.6" y="346.4025">Tricount : TricountEntity</text><text fill="#000000" font-family="sans-serif" font-size="36.4" lengthAdjust="spacing" textLength="291.2" x="2797.6" y="389.272">User : UserEntity</text></g><!--class OperationEntity--><g id="elem_OperationEntity"><rect codeLine="52" fill="#F1F1F1" height="596.3648" id="OperationEntity" rx="6.5" ry="6.5" style="stroke:#181818;stroke-width:1.3;" width="821.6" x="2602.6" y="1419.626"/><ellipse cx="2863.25" cy="1461.226" fill="#ADD1B2" rx="28.6" ry="28.6" style="stroke:#181818;stroke-width:2.6;"/><path d="M2869.6802,1477.198 Q2868.1694,1477.9749 2866.5076,1478.3634 Q2864.8458,1478.7519 2863.0113,1478.7519 Q2856.4936,1478.7519 2853.062,1474.4571 Q2849.6305,1470.1622 2849.6305,1462.0474 Q2849.6305,1453.911 2853.062,1449.6161 Q2856.4936,1445.3213 2863.0113,1445.3213 Q2864.8458,1445.3213 2866.5292,1445.7098 Q2868.2126,1446.0983 2869.6802,1446.8752 L2869.6802,1453.9541 Q2868.0399,1452.4434 2866.4968,1451.742 Q2864.9537,1451.0406 2863.3135,1451.0406 Q2859.8172,1451.0406 2858.0367,1453.8138 Q2856.2562,1456.5871 2856.2562,1462.0474 Q2856.2562,1467.4861 2858.0367,1470.2593 Q2859.8172,1473.0326 2863.3135,1473.0326 Q2864.9537,1473.0326 2866.4968,1472.3312 Q2868.0399,1471.6298 2869.6802,1470.1191 Z " fill="#000000"/><text fill="#000000" font-family="sans-serif" font-size="36.4" lengthAdjust="spacing" textLength="278.2" x="2916.55" y="1474.9826">OperationEntity</text><line style="stroke:#181818;stroke-width:1.3;" x1="2605.2" x2="3421.6" y1="1502.826" y2="1502.826"/><text fill="#000000" font-family="sans-serif" font-size="36.4" lengthAdjust="spacing" textLength="111.8" x="2618.2" y="1548.4174">Id : int</text><text fill="#000000" font-family="sans-serif" font-size="36.4" lengthAdjust="spacing" textLength="213.2" x="2618.2" y="1591.2869">Title : string</text><text fill="#000000" font-family="sans-serif" font-size="36.4" lengthAdjust="spacing" textLength="312" x="2618.2" y="1634.1565">Amount : decimal</text><text fill="#000000" font-family="sans-serif" font-size="36.4" lengthAdjust="spacing" textLength="452.4" x="2618.2" y="1677.026">OperationDate : DateOnly</text><text fill="#000000" font-family="sans-serif" font-size="36.4" lengthAdjust="spacing" textLength="379.6" x="2618.2" y="1719.8955">CreatedAt : DateTime</text><text fill="#000000" font-family="sans-serif" font-size="36.4" lengthAdjust="spacing" textLength="252.2" x="2618.2" y="1762.7651">InitiatorId : int</text><text fill="#000000" font-family="sans-serif" font-size="36.4" lengthAdjust="spacing" textLength="262.6" x="2618.2" y="1805.6346">TricountId : int</text><line style="stroke:#181818;stroke-width:2.6;" x1="2605.2" x2="3421.6" y1="1823.7127" y2="1823.7127"/><text fill="#000000" font-family="sans-serif" font-size="36.4" lengthAdjust="spacing" textLength="351" x="2618.2" y="1869.3041">Initiator : UserEntity</text><text fill="#000000" font-family="sans-serif" font-size="36.4" lengthAdjust="spacing" textLength="431.6" x="2618.2" y="1912.1737">Tricount : TricountEntity</text><text fill="#000000" font-family="sans-serif" font-size="36.4" lengthAdjust="spacing" textLength="665.6" x="2618.2" y="1955.0432">Participants : ICollection&lt;UserEntity&gt;</text><text fill="#000000" font-family="sans-serif" font-size="36.4" lengthAdjust="spacing" textLength="790.4" x="2618.2" y="1997.9127">Repartitions : ICollection&lt;RepartitionEntity&gt;</text></g><!--class RepartitionEntity--><g id="elem_RepartitionEntity"><rect codeLine="67" fill="#F1F1F1" height="339.1477" id="RepartitionEntity" rx="6.5" ry="6.5" style="stroke:#181818;stroke-width:1.3;" width="520" x="3814.2" y="2039.648"/><ellipse cx="3916.38" cy="2081.248" fill="#ADD1B2" rx="28.6" ry="28.6" style="stroke:#181818;stroke-width:2.6;"/><path d="M3922.8102,2097.22 Q3921.2994,2097.9969 3919.6376,2098.3854 Q3917.9758,2098.7739 3916.1413,2098.7739 Q3909.6236,2098.7739 3906.192,2094.4791 Q3902.7605,2090.1842 3902.7605,2082.0694 Q3902.7605,2073.933 3906.192,2069.6381 Q3909.6236,2065.3433 3916.1413,2065.3433 Q3917.9758,2065.3433 3919.6592,2065.7318 Q3921.3426,2066.1203 3922.8102,2066.8972 L3922.8102,2073.9761 Q3921.1699,2072.4654 3919.6268,2071.764 Q3918.0837,2071.0626 3916.4435,2071.0626 Q3912.9472,2071.0626 3911.1667,2073.8358 Q3909.3862,2076.6091 3909.3862,2082.0694 Q3909.3862,2087.5081 3911.1667,2090.2813 Q3912.9472,2093.0546 3916.4435,2093.0546 Q3918.0837,2093.0546 3919.6268,2092.3532 Q3921.1699,2091.6518 3922.8102,2090.1411 Z " fill="#000000"/><text fill="#000000" font-family="sans-serif" font-size="36.4" lengthAdjust="spacing" textLength="296.4" x="3966.82" y="2095.0046">RepartitionEntity</text><line style="stroke:#181818;stroke-width:1.3;" x1="3816.8" x2="4331.6" y1="2122.848" y2="2122.848"/><text fill="#000000" font-family="sans-serif" font-size="36.4" lengthAdjust="spacing" textLength="291.2" x="3829.8" y="2168.4394">OperationId : int</text><text fill="#000000" font-family="sans-serif" font-size="36.4" lengthAdjust="spacing" textLength="192.4" x="3829.8" y="2211.3089">UserId : int</text><text fill="#000000" font-family="sans-serif" font-size="36.4" lengthAdjust="spacing" textLength="200.2" x="3829.8" y="2254.1785">Weight : int</text><line style="stroke:#181818;stroke-width:2.6;" x1="3816.8" x2="4331.6" y1="2272.2566" y2="2272.2566"/><text fill="#000000" font-family="sans-serif" font-size="36.4" lengthAdjust="spacing" textLength="488.8" x="3829.8" y="2317.848">Operation : OperationEntity</text><text fill="#000000" font-family="sans-serif" font-size="36.4" lengthAdjust="spacing" textLength="291.2" x="3829.8" y="2360.7175">User : UserEntity</text></g><!--link UserEntity to TricountEntity--><g id="link_UserEntity_TricountEntity"><path codeLine="76" d="M949.936,1154.114 C1117.766,1096.238 1303.328,1016.938 1455.74,936.78 " fill="none" id="UserEntity-TricountEntity" style="stroke:#181818;stroke-width:2.6;"/><text fill="#000000" font-family="sans-serif" font-size="33.8" lengthAdjust="spacing" textLength="348.4" x="968.9519" y="1145.8503">0..* CreatedTricounts</text><text fill="#000000" font-family="sans-serif" font-size="33.8" lengthAdjust="spacing" textLength="150.8" x="1277.1342" y="988.883">1 Creator</text></g><!--link UserEntity to TricountEntity--><g id="link_UserEntity_TricountEntity"><path codeLine="86" d="M949.936,871.988 C1076.712,813.28 1213.602,758.576 1338.688,716.82 " fill="none" id="UserEntity-TricountEntity-1" style="stroke:#181818;stroke-width:2.6;"/><text fill="#000000" font-family="sans-serif" font-size="33.8" lengthAdjust="spacing" textLength="223.6" x="968.9061" y="894.5423">0..* Tricounts</text><text fill="#000000" font-family="sans-serif" font-size="33.8" lengthAdjust="spacing" textLength="260" x="1058.3074" y="751.5214">0..* Participants</text></g><!--link TricountEntity to OperationEntity--><g id="link_TricountEntity_OperationEntity"><path codeLine="77" d="M2083.042,936.858 C2256.254,1082.666 2474.03,1265.966 2655.042,1418.352 " fill="none" id="TricountEntity-OperationEntity" style="stroke:#181818;stroke-width:2.6;"/><text fill="#000000" font-family="sans-serif" font-size="33.8" lengthAdjust="spacing" textLength="169" x="1929.7035" y="988.9665">1 Tricount</text><text fill="#000000" font-family="sans-serif" font-size="33.8" lengthAdjust="spacing" textLength="247" x="2377.173" y="1391.6225">0..* Operations</text></g><!--link UserEntity to OperationEntity--><g id="link_UserEntity_OperationEntity"><path codeLine="78" d="M949.988,1411.748 C1423.058,1550.302 2149.966,1697.566 2602.054,1745.172 " fill="none" id="UserEntity-OperationEntity" style="stroke:#181818;stroke-width:2.6;"/><text fill="#000000" font-family="sans-serif" font-size="33.8" lengthAdjust="spacing" textLength="382.2" x="969.5072" y="1451.2906">0..* InitiatedOperations</text><text fill="#000000" font-family="sans-serif" font-size="33.8" lengthAdjust="spacing" textLength="161.2" x="2420.1" y="1779.8438">1 Initiator</text></g><!--link UserEntity to OperationEntity--><g id="link_UserEntity_OperationEntity"><path codeLine="87" d="M949.988,1179.178 C1423.058,1234.532 2149.966,1385.228 2602.054,1522.924 " fill="none" id="UserEntity-OperationEntity-1" style="stroke:#181818;stroke-width:2.6;"/><text fill="#000000" font-family="sans-serif" font-size="33.8" lengthAdjust="spacing" textLength="247" x="969.3437" y="1211.812">0..* Operations</text><text fill="#000000" font-family="sans-serif" font-size="33.8" lengthAdjust="spacing" textLength="260" x="2322.5994" y="1549.3134">0..* Participants</text></g><!--link UserEntity to ParticipationEntity--><g id="link_UserEntity_ParticipationEntity"><path codeLine="80" d="M701.142,826.54 C849.394,608.53 1068.314,353.028 1339,230.62 C1814.41,15.6 2446.418,116.636 2780.752,195.884 " fill="none" id="UserEntity-ParticipationEntity" style="stroke:#181818;stroke-width:2.6;"/><text fill="#000000" font-family="sans-serif" font-size="33.8" lengthAdjust="spacing" textLength="104" x="605.6778" y="799.9552">1 User</text><text fill="#000000" font-family="sans-serif" font-size="33.8" lengthAdjust="spacing" textLength="291.2" x="2470.0486" y="226.3227">0..* Participations</text></g><!--link TricountEntity to ParticipationEntity--><g id="link_TricountEntity_ParticipationEntity"><path codeLine="81" d="M2213.77,531.622 C2404.948,466.284 2621.632,392.236 2780.752,337.844 " fill="none" id="TricountEntity-ParticipationEntity" style="stroke:#181818;stroke-width:2.6;"/><text fill="#000000" font-family="sans-serif" font-size="33.8" lengthAdjust="spacing" textLength="169" x="2234.179" y="559.2651">1 Tricount</text><text fill="#000000" font-family="sans-serif" font-size="33.8" lengthAdjust="spacing" textLength="291.2" x="2470.0486" y="375.6025">0..* Participations</text></g><!--link UserEntity to RepartitionEntity--><g id="link_UserEntity_RepartitionEntity"><path codeLine="83" d="M949.494,1501.058 C1363.57,1749.878 1996.696,2082.704 2602.6,2211.82 C3019.146,2300.584 3517.384,2272.426 3813.446,2242.136 " fill="none" id="UserEntity-RepartitionEntity" style="stroke:#181818;stroke-width:2.6;"/><text fill="#000000" font-family="sans-serif" font-size="33.8" lengthAdjust="spacing" textLength="104" x="969.7242" y="1546.2571">1 User</text><text fill="#000000" font-family="sans-serif" font-size="33.8" lengthAdjust="spacing" textLength="265.2" x="3527.9637" y="2277.5372">0..* Repartitions</text></g><!--link OperationEntity to RepartitionEntity--><g id="link_OperationEntity_RepartitionEntity"><path codeLine="84" d="M3424.876,1908.166 C3555.63,1969.032 3696.654,2034.682 3813.55,2089.1 " fill="none" id="OperationEntity-RepartitionEntity" style="stroke:#181818;stroke-width:2.6;"/><text fill="#000000" font-family="sans-serif" font-size="33.8" lengthAdjust="spacing" textLength="192.4" x="3444.7071" y="1949.0571">1 Operation</text><text fill="#000000" font-family="sans-serif" font-size="33.8" lengthAdjust="spacing" textLength="265.2" x="3528.073" y="2116.6102">0..* Repartitions</text></g><!--SRC=[jLHDRzim3BtxLmW-5cZG3DWEHT0XQmlKXxL5bs5dLUPQ8hPaI0g6RjX_7wtOiZwSBXsmaqtoaIBVezJ0TykiOXgVdYshKOEmg6HXjYWxhddBHCEDMLkhyN5deH9AVi6VmCu2Y5Gr6EZOydterLnklLVm1jYxnOUY0BbhsOCYyrV1s2TkK7mreEb_NRSeYzz5uOvalVTQMhGl3bdLx9oXjFHxtN9io3BKb7mYnorl8RJlAV-7qlKDDy-XlthaqjiVoU7wE7SViavFWroFOwlLhRAVUTT1VN51Y8tQGb0cYxio6ur2xQGr1AmkLTFiYLsD_lraFVnI0xTG7vzmpxL5WHtluoay2auvTnteMRmFJDXAeiM-fRSaFK3Ndpo73a8ZteiSJvSAlK7RHC9UWH4QkxvKfAFZKEaWTM1rRSbpHNyRRBt40veYquw5lEOYJBZ_Bu3dPgQI8sZaB9YsxoymemqaRypoW8_7zwSc_VnLadKx75A3m9OtuQmzyGF_Tx9vEIpBi7AHWZDZkhayDjNljO6FrlOVzpYBETuy4OUb-WRkvOqcz6daJkGuf5tmM9PdYyL9zggKL9gLot7tovIYv28ISlJiCrtHQOdBhB6iWvbdP6p2IvYNYUeitPH10_7DA-Uko76J75FezLR2HIbp_Olq7b45xtf3cPpNHD9u7ETEfCqgf8BCb4Xb-GC0]--></g></svg>